<svg id="svg" xmlns="http://www.w3.org/2000/svg" xmlns:xlink="http://www.w3.org/1999/xlink" width="400" height="444.28312159709617" viewBox="0, 0, 400,444.28312159709617"><g id="svgg"><path id="path0" d="M228.589 28.387 C 225.148 28.720,220.411 29.456,218.063 30.024 L 213.793 31.055 222.977 31.136 C 256.545 31.429,283.101 45.437,296.580 69.959 C 299.845 75.899,299.631 76.503,295.856 72.002 C 276.987 49.506,240.081 39.474,202.541 46.636 L 197.822 47.537 210.163 47.996 C 244.844 49.289,272.135 61.541,284.898 81.548 C 288.162 86.666,288.448 86.337,280.048 87.132 C 270.569 88.029,258.439 90.915,258.439 92.273 C 258.439 95.451,267.737 100.835,274.245 101.425 L 278.517 101.812 275.532 106.264 C 271.940 111.621,270.062 117.333,267.153 131.760 C 262.141 156.617,255.482 168.075,238.752 180.635 C 236.508 182.319,233.114 185.681,231.210 188.105 C 209.987 215.118,151.310 227.875,117.921 212.736 L 113.335 210.657 112.879 212.734 C 111.189 220.430,115.849 228.102,125.870 234.120 C 126.899 234.738,126.477 235.308,123.041 237.948 C 113.061 245.615,109.058 256.490,107.084 281.307 C 105.344 303.169,104.142 308.623,99.063 317.705 C 94.162 326.469,84.057 335.525,76.728 337.721 C 73.124 338.800,72.477 340.292,70.823 351.315 C 68.545 366.502,63.762 376.454,53.440 387.487 C 47.103 394.261,45.747 396.862,45.739 402.264 C 45.735 404.771,45.605 404.908,42.881 405.273 C 36.226 406.166,29.521 411.475,25.817 418.785 C 23.092 424.162,23.145 424.238,29.255 423.722 C 47.339 422.193,54.009 416.137,67.164 389.309 C 83.971 355.032,98.046 339.572,143.013 305.992 C 148.802 301.669,157.132 295.286,161.525 291.808 C 190.044 269.224,211.488 262.440,241.558 266.487 C 255.253 268.330,284.563 257.922,296.259 247.064 C 297.743 245.686,299.088 245.267,302.583 245.093 C 308.405 244.804,313.359 242.304,325.953 233.298 C 339.727 223.447,356.358 213.430,358.939 213.430 C 359.663 213.430,358.742 220.713,357.127 227.738 C 355.437 235.094,352.665 241.296,346.894 250.634 C 343.280 256.482,342.363 258.600,342.003 261.928 L 341.561 266.024 338.490 266.547 C 330.900 267.840,320.871 275.394,320.871 279.819 C 320.871 280.906,334.817 280.130,339.073 278.805 C 351.989 274.786,355.845 268.944,360.749 245.967 C 363.668 232.293,365.917 224.635,369.596 215.854 C 373.659 206.154,373.738 205.450,371.091 202.435 C 367.029 197.810,366.273 197.706,358.339 200.677 C 346.636 205.060,325.631 209.720,324.169 208.258 C 323.981 208.071,324.306 206.329,324.891 204.388 C 327.454 195.870,326.214 187.270,319.443 166.606 C 311.990 143.858,310.383 128.241,315.917 132.333 C 317.856 133.766,319.269 133.985,329.099 134.376 C 341.876 134.883,346.418 136.102,354.727 141.253 C 360.920 145.092,360.739 145.075,362.805 142.040 C 366.546 136.546,365.668 133.868,357.642 126.271 C 349.010 118.102,344.813 112.755,340.620 104.586 C 338.521 100.495,336.769 98.029,335.502 97.379 C 330.648 94.890,326.042 91.200,325.602 89.447 C 324.834 86.385,318.438 73.937,315.057 68.923 C 294.555 38.514,265.369 24.832,228.589 28.387 " stroke="none" fill="#000000" fill-rule="evenodd"></path></g></svg>