<?xml version="1.0" encoding="UTF-8" standalone="no"?>
<!DOCTYPE svg PUBLIC "-//W3C//DTD SVG 1.1//EN"
 "http://www.w3.org/Graphics/SVG/1.1/DTD/svg11.dtd">
<!-- Generated by graphviz version 2.40.1 (20161225.0304)
 -->
<!-- Title: dependencies Pages: 1 -->
<svg width="5091pt" height="284pt"
 viewBox="0.00 0.00 5091.00 284.00" xmlns="http://www.w3.org/2000/svg" xmlns:xlink="http://www.w3.org/1999/xlink">
<g id="graph0" class="graph" transform="scale(1 1) rotate(0) translate(4 280)">
<title>dependencies</title>
<polygon fill="#ffffff" stroke="transparent" points="-4,4 -4,-280 5087,-280 5087,4 -4,4"/>
<text text-anchor="start" x="2520.5091" y="-42.4" font-family="sans-serif" font-weight="bold" font-size="14.00" fill="#000000">Legend</text>
<polygon fill="#ffffb3" stroke="transparent" points="2307.5,-10 2307.5,-30 2327.5,-30 2327.5,-10 2307.5,-10"/>
<text text-anchor="start" x="2331.129" y="-15.4" font-family="sans-serif" font-size="14.00" fill="#000000"> &#160;Declarations</text>
<polygon fill="#8dd3c7" stroke="transparent" points="2420.5,-10 2420.5,-30 2440.5,-30 2440.5,-10 2420.5,-10"/>
<text text-anchor="start" x="2444.2251" y="-15.4" font-family="sans-serif" font-size="14.00" fill="#000000"> &#160;Module</text>
<polygon fill="#80b1d3" stroke="transparent" points="2506.5,-10 2506.5,-30 2526.5,-30 2526.5,-10 2506.5,-10"/>
<text text-anchor="start" x="2530.2812" y="-15.4" font-family="sans-serif" font-size="14.00" fill="#000000"> &#160;Bootstrap</text>
<polygon fill="#fdb462" stroke="transparent" points="2603.5,-10 2603.5,-30 2623.5,-30 2623.5,-10 2603.5,-10"/>
<text text-anchor="start" x="2627.1732" y="-15.4" font-family="sans-serif" font-size="14.00" fill="#000000"> &#160;Providers</text>
<polygon fill="#fb8072" stroke="transparent" points="2699.5,-10 2699.5,-30 2719.5,-30 2719.5,-10 2699.5,-10"/>
<text text-anchor="start" x="2723.2258" y="-15.4" font-family="sans-serif" font-size="14.00" fill="#000000"> &#160;Exports</text>
<g id="clust1" class="cluster">
<title>cluster_AppModule</title>
<polygon fill="none" stroke="#000000" stroke-dasharray="1,5" points="8,-70 8,-268 5075,-268 5075,-70 8,-70"/>
</g>
<g id="clust2" class="cluster">
<title>cluster_AppModule_declarations</title>
<polygon fill="none" stroke="#000000" points="293,-78 293,-130 5067,-130 5067,-78 293,-78"/>
</g>
<g id="clust33" class="cluster">
<title>cluster_AppModule_imports</title>
<polygon fill="none" stroke="#000000" points="16,-78 16,-130 285,-130 285,-78 16,-78"/>
</g>
<g id="clust35" class="cluster">
<title>cluster_AppModule_bootstrap</title>
<polygon fill="none" stroke="#000000" points="2446,-208 2446,-260 2570,-260 2570,-208 2446,-208"/>
</g>
<!-- AppComponent -->
<g id="node1" class="node">
<title>AppComponent</title>
<polygon fill="#ffffb3" stroke="#000000" points="5058.9399,-122 4953.0601,-122 4953.0601,-86 5058.9399,-86 5058.9399,-122"/>
<text text-anchor="middle" x="5006" y="-99.8" font-family="Times,serif" font-size="14.00" fill="#000000">AppComponent</text>
</g>
<!-- AppModule -->
<g id="node31" class="node">
<title>AppModule</title>
<polygon fill="#8dd3c7" stroke="#000000" points="2549.6571,-187 2546.6571,-191 2525.6571,-191 2522.6571,-187 2466.3429,-187 2466.3429,-151 2549.6571,-151 2549.6571,-187"/>
<text text-anchor="middle" x="2508" y="-164.8" font-family="Times,serif" font-size="14.00" fill="#000000">AppModule</text>
</g>
<!-- AppComponent&#45;&gt;AppModule -->
<g id="edge1" class="edge">
<title>AppComponent&#45;&gt;AppModule</title>
<path fill="none" stroke="#000000" d="M5006,-122.3802C5006,-146.2785 5006,-185 5006,-185 5006,-185 2559.7898,-185 2559.7898,-185"/>
<polygon fill="#000000" stroke="#000000" points="2559.7898,-181.5001 2549.7898,-185 2559.7898,-188.5001 2559.7898,-181.5001"/>
</g>
<!-- BuscarProyventasolDialogComponent -->
<g id="node2" class="node">
<title>BuscarProyventasolDialogComponent</title>
<polygon fill="#ffffb3" stroke="#000000" points="4935.9044,-122 4704.0956,-122 4704.0956,-86 4935.9044,-86 4935.9044,-122"/>
<text text-anchor="middle" x="4820" y="-99.8" font-family="Times,serif" font-size="14.00" fill="#000000">BuscarProyventasolDialogComponent</text>
</g>
<!-- BuscarProyventasolDialogComponent&#45;&gt;AppModule -->
<g id="edge2" class="edge">
<title>BuscarProyventasolDialogComponent&#45;&gt;AppModule</title>
<path fill="none" stroke="#000000" d="M4820,-122.3228C4820,-145.6602 4820,-183 4820,-183 4820,-183 2560.1027,-183 2560.1027,-183"/>
<polygon fill="#000000" stroke="#000000" points="2560.1027,-179.5001 2550.1027,-183 2560.1027,-186.5001 2560.1027,-179.5001"/>
</g>
<!-- CalendarioComponent -->
<g id="node3" class="node">
<title>CalendarioComponent</title>
<polygon fill="#ffffb3" stroke="#000000" points="4686.2548,-122 4543.7452,-122 4543.7452,-86 4686.2548,-86 4686.2548,-122"/>
<text text-anchor="middle" x="4615" y="-99.8" font-family="Times,serif" font-size="14.00" fill="#000000">CalendarioComponent</text>
</g>
<!-- CalendarioComponent&#45;&gt;AppModule -->
<g id="edge3" class="edge">
<title>CalendarioComponent&#45;&gt;AppModule</title>
<path fill="none" stroke="#000000" d="M4615,-122.2479C4615,-145.0179 4615,-181 4615,-181 4615,-181 2560.0881,-181 2560.0881,-181"/>
<polygon fill="#000000" stroke="#000000" points="2560.0882,-177.5001 2550.0881,-181 2560.0881,-184.5001 2560.0882,-177.5001"/>
</g>
<!-- CapitalizadoPipe -->
<g id="node4" class="node">
<title>CapitalizadoPipe</title>
<polygon fill="#ffffb3" stroke="#000000" points="4525.6458,-122 4414.3542,-122 4414.3542,-86 4525.6458,-86 4525.6458,-122"/>
<text text-anchor="middle" x="4470" y="-99.8" font-family="Times,serif" font-size="14.00" fill="#000000">CapitalizadoPipe</text>
</g>
<!-- CapitalizadoPipe&#45;&gt;AppModule -->
<g id="edge4" class="edge">
<title>CapitalizadoPipe&#45;&gt;AppModule</title>
<path fill="none" stroke="#000000" d="M4470,-122.2921C4470,-144.2057 4470,-178 4470,-178 4470,-178 2559.8868,-178 2559.8868,-178"/>
<polygon fill="#000000" stroke="#000000" points="2559.8869,-174.5001 2549.8868,-178 2559.8868,-181.5001 2559.8869,-174.5001"/>
</g>
<!-- DetproyventasComponent -->
<g id="node5" class="node">
<title>DetproyventasComponent</title>
<polygon fill="#ffffb3" stroke="#000000" points="4396.4692,-122 4233.5308,-122 4233.5308,-86 4396.4692,-86 4396.4692,-122"/>
<text text-anchor="middle" x="4315" y="-99.8" font-family="Times,serif" font-size="14.00" fill="#000000">DetproyventasComponent</text>
</g>
<!-- DetproyventasComponent&#45;&gt;AppModule -->
<g id="edge5" class="edge">
<title>DetproyventasComponent&#45;&gt;AppModule</title>
<path fill="none" stroke="#000000" d="M4315,-122.1686C4315,-143.498 4315,-176 4315,-176 4315,-176 2560.0069,-176 2560.0069,-176"/>
<polygon fill="#000000" stroke="#000000" points="2560.0069,-172.5001 2550.0069,-176 2560.0069,-179.5001 2560.0069,-172.5001"/>
</g>
<!-- DialogListarNavesComponent -->
<g id="node6" class="node">
<title>DialogListarNavesComponent</title>
<polygon fill="#ffffb3" stroke="#000000" points="4215.5688,-122 4028.4312,-122 4028.4312,-86 4215.5688,-86 4215.5688,-122"/>
<text text-anchor="middle" x="4122" y="-99.8" font-family="Times,serif" font-size="14.00" fill="#000000">DialogListarNavesComponent</text>
</g>
<!-- DialogListarNavesComponent&#45;&gt;AppModule -->
<g id="edge6" class="edge">
<title>DialogListarNavesComponent&#45;&gt;AppModule</title>
<path fill="none" stroke="#000000" d="M4122,-122.0267C4122,-142.7672 4122,-174 4122,-174 4122,-174 2559.9289,-174 2559.9289,-174"/>
<polygon fill="#000000" stroke="#000000" points="2559.929,-170.5001 2549.9289,-174 2559.9289,-177.5001 2559.929,-170.5001"/>
</g>
<!-- DialogRegistrarNavesComponent -->
<g id="node7" class="node">
<title>DialogRegistrarNavesComponent</title>
<polygon fill="#ffffb3" stroke="#000000" points="4010.7282,-122 3805.2718,-122 3805.2718,-86 4010.7282,-86 4010.7282,-122"/>
<text text-anchor="middle" x="3908" y="-99.8" font-family="Times,serif" font-size="14.00" fill="#000000">DialogRegistrarNavesComponent</text>
</g>
<!-- DialogRegistrarNavesComponent&#45;&gt;AppModule -->
<g id="edge7" class="edge">
<title>DialogRegistrarNavesComponent&#45;&gt;AppModule</title>
<path fill="none" stroke="#000000" d="M3908,-122.2228C3908,-142.3652 3908,-172 3908,-172 3908,-172 2559.8992,-172 2559.8992,-172"/>
<polygon fill="#000000" stroke="#000000" points="2559.8993,-168.5001 2549.8992,-172 2559.8992,-175.5001 2559.8993,-168.5001"/>
</g>
<!-- FechaPipe -->
<g id="node8" class="node">
<title>FechaPipe</title>
<polygon fill="#ffffb3" stroke="#000000" points="3787.3149,-122 3712.6851,-122 3712.6851,-86 3787.3149,-86 3787.3149,-122"/>
<text text-anchor="middle" x="3750" y="-99.8" font-family="Times,serif" font-size="14.00" fill="#000000">FechaPipe</text>
</g>
<!-- FechaPipe&#45;&gt;AppModule -->
<g id="edge8" class="edge">
<title>FechaPipe&#45;&gt;AppModule</title>
<path fill="none" stroke="#000000" d="M3750,-122.1061C3750,-141.3391 3750,-169 3750,-169 3750,-169 2559.6787,-169 2559.6787,-169"/>
<polygon fill="#000000" stroke="#000000" points="2559.6787,-165.5001 2549.6787,-169 2559.6787,-172.5001 2559.6787,-165.5001"/>
</g>
<!-- ForecastComponent -->
<g id="node9" class="node">
<title>ForecastComponent</title>
<polygon fill="#ffffb3" stroke="#000000" points="3694.2548,-122 3565.7452,-122 3565.7452,-86 3694.2548,-86 3694.2548,-122"/>
<text text-anchor="middle" x="3630" y="-99.8" font-family="Times,serif" font-size="14.00" fill="#000000">ForecastComponent</text>
</g>
<!-- ForecastComponent&#45;&gt;AppModule -->
<g id="edge9" class="edge">
<title>ForecastComponent&#45;&gt;AppModule</title>
<path fill="none" stroke="#000000" d="M3630,-122.2222C3630,-140.8285 3630,-167 3630,-167 3630,-167 2559.936,-167 2559.936,-167"/>
<polygon fill="#000000" stroke="#000000" points="2559.936,-163.5001 2549.936,-167 2559.9359,-170.5001 2559.936,-163.5001"/>
</g>
<!-- GatesComponent -->
<g id="node10" class="node">
<title>GatesComponent</title>
<polygon fill="#ffffb3" stroke="#000000" points="3547.7036,-122 3434.2964,-122 3434.2964,-86 3547.7036,-86 3547.7036,-122"/>
<text text-anchor="middle" x="3491" y="-99.8" font-family="Times,serif" font-size="14.00" fill="#000000">GatesComponent</text>
</g>
<!-- GatesComponent&#45;&gt;AppModule -->
<g id="edge10" class="edge">
<title>GatesComponent&#45;&gt;AppModule</title>
<path fill="none" stroke="#000000" d="M3491,-122.302C3491,-140.2699 3491,-165 3491,-165 3491,-165 2559.9238,-165 2559.9238,-165"/>
<polygon fill="#000000" stroke="#000000" points="2559.9239,-161.5001 2549.9238,-165 2559.9238,-168.5001 2559.9239,-161.5001"/>
</g>
<!-- HomeComponent -->
<g id="node11" class="node">
<title>HomeComponent</title>
<polygon fill="#ffffb3" stroke="#000000" points="3416.5451,-122 3301.4549,-122 3301.4549,-86 3416.5451,-86 3416.5451,-122"/>
<text text-anchor="middle" x="3359" y="-99.8" font-family="Times,serif" font-size="14.00" fill="#000000">HomeComponent</text>
</g>
<!-- HomeComponent&#45;&gt;AppModule -->
<g id="edge11" class="edge">
<title>HomeComponent&#45;&gt;AppModule</title>
<path fill="none" stroke="#000000" d="M3359,-122.0225C3359,-139.3734 3359,-163 3359,-163 3359,-163 2559.911,-163 2559.911,-163"/>
<polygon fill="#000000" stroke="#000000" points="2559.911,-159.5001 2549.911,-163 2559.9109,-166.5001 2559.911,-159.5001"/>
</g>
<!-- ImagenUsuarioComponent -->
<g id="node12" class="node">
<title>ImagenUsuarioComponent</title>
<polygon fill="#ffffb3" stroke="#000000" points="3282.6302,-122 3115.3698,-122 3115.3698,-86 3282.6302,-86 3282.6302,-122"/>
<text text-anchor="middle" x="3199" y="-99.8" font-family="Times,serif" font-size="14.00" fill="#000000">ImagenUsuarioComponent</text>
</g>
<!-- ImagenUsuarioComponent&#45;&gt;AppModule -->
<g id="edge12" class="edge">
<title>ImagenUsuarioComponent&#45;&gt;AppModule</title>
<path fill="none" stroke="#000000" d="M3199,-122.027C3199,-138.3976 3199,-160 3199,-160 3199,-160 2559.669,-160 2559.669,-160"/>
<polygon fill="#000000" stroke="#000000" points="2559.669,-156.5001 2549.669,-160 2559.669,-163.5001 2559.669,-156.5001"/>
</g>
<!-- LoginPageComponent -->
<g id="node13" class="node">
<title>LoginPageComponent</title>
<polygon fill="#ffffb3" stroke="#000000" points="3096.9874,-122 2955.0126,-122 2955.0126,-86 3096.9874,-86 3096.9874,-122"/>
<text text-anchor="middle" x="3026" y="-99.8" font-family="Times,serif" font-size="14.00" fill="#000000">LoginPageComponent</text>
</g>
<!-- LoginPageComponent&#45;&gt;AppModule -->
<g id="edge13" class="edge">
<title>LoginPageComponent&#45;&gt;AppModule</title>
<path fill="none" stroke="#000000" d="M3026,-122.2819C3026,-137.9478 3026,-158 3026,-158 3026,-158 2559.9513,-158 2559.9513,-158"/>
<polygon fill="#000000" stroke="#000000" points="2559.9514,-154.5001 2549.9513,-158 2559.9513,-161.5001 2559.9514,-154.5001"/>
</g>
<!-- MayusculaDirective -->
<g id="node14" class="node">
<title>MayusculaDirective</title>
<polygon fill="#ffffb3" stroke="#000000" points="2936.5073,-122 2807.4927,-122 2807.4927,-86 2936.5073,-86 2936.5073,-122"/>
<text text-anchor="middle" x="2872" y="-99.8" font-family="Times,serif" font-size="14.00" fill="#000000">MayusculaDirective</text>
</g>
<!-- MayusculaDirective&#45;&gt;AppModule -->
<g id="edge14" class="edge">
<title>MayusculaDirective&#45;&gt;AppModule</title>
<path fill="none" stroke="#000000" d="M2872,-122.1871C2872,-137.1824 2872,-156 2872,-156 2872,-156 2559.7554,-156 2559.7554,-156"/>
<polygon fill="#000000" stroke="#000000" points="2559.7555,-152.5001 2549.7554,-156 2559.7554,-159.5001 2559.7555,-152.5001"/>
</g>
<!-- NavBarComponent -->
<g id="node15" class="node">
<title>NavBarComponent</title>
<polygon fill="#ffffb3" stroke="#000000" points="2789.3655,-122 2664.6345,-122 2664.6345,-86 2789.3655,-86 2789.3655,-122"/>
<text text-anchor="middle" x="2727" y="-99.8" font-family="Times,serif" font-size="14.00" fill="#000000">NavBarComponent</text>
</g>
<!-- NavBarComponent&#45;&gt;AppModule -->
<g id="edge15" class="edge">
<title>NavBarComponent&#45;&gt;AppModule</title>
<path fill="none" stroke="#000000" d="M2727,-122.0511C2727,-136.373 2727,-154 2727,-154 2727,-154 2559.7077,-154 2559.7077,-154"/>
<polygon fill="#000000" stroke="#000000" points="2559.7077,-150.5001 2549.7077,-154 2559.7077,-157.5001 2559.7077,-150.5001"/>
</g>
<!-- NavesComponent -->
<g id="node16" class="node">
<title>NavesComponent</title>
<polygon fill="#ffffb3" stroke="#000000" points="2646.3132,-122 2529.6868,-122 2529.6868,-86 2646.3132,-86 2646.3132,-122"/>
<text text-anchor="middle" x="2588" y="-99.8" font-family="Times,serif" font-size="14.00" fill="#000000">NavesComponent</text>
</g>
<!-- NavesComponent&#45;&gt;AppModule -->
<g id="edge16" class="edge">
<title>NavesComponent&#45;&gt;AppModule</title>
<path fill="none" stroke="#000000" d="M2539.8359,-122.1061C2539.8359,-122.1061 2539.8359,-140.991 2539.8359,-140.991"/>
<polygon fill="#000000" stroke="#000000" points="2536.336,-140.9909 2539.8359,-150.991 2543.336,-140.991 2536.336,-140.9909"/>
</g>
<!-- NotFoundPageComponent -->
<g id="node17" class="node">
<title>NotFoundPageComponent</title>
<polygon fill="#ffffb3" stroke="#000000" points="2511.8243,-122 2346.1757,-122 2346.1757,-86 2511.8243,-86 2511.8243,-122"/>
<text text-anchor="middle" x="2429" y="-99.8" font-family="Times,serif" font-size="14.00" fill="#000000">NotFoundPageComponent</text>
</g>
<!-- NotFoundPageComponent&#45;&gt;AppModule -->
<g id="edge17" class="edge">
<title>NotFoundPageComponent&#45;&gt;AppModule</title>
<path fill="none" stroke="#000000" d="M2488.9169,-122.1061C2488.9169,-122.1061 2488.9169,-140.991 2488.9169,-140.991"/>
<polygon fill="#000000" stroke="#000000" points="2485.417,-140.9909 2488.9169,-150.991 2492.417,-140.991 2485.417,-140.9909"/>
</g>
<!-- OutstandingComponent -->
<g id="node18" class="node">
<title>OutstandingComponent</title>
<polygon fill="#ffffb3" stroke="#000000" points="2327.7702,-122 2178.2298,-122 2178.2298,-86 2327.7702,-86 2327.7702,-122"/>
<text text-anchor="middle" x="2253" y="-99.8" font-family="Times,serif" font-size="14.00" fill="#000000">OutstandingComponent</text>
</g>
<!-- OutstandingComponent&#45;&gt;AppModule -->
<g id="edge18" class="edge">
<title>OutstandingComponent&#45;&gt;AppModule</title>
<path fill="none" stroke="#000000" d="M2253,-122.0511C2253,-136.373 2253,-154 2253,-154 2253,-154 2456.1775,-154 2456.1775,-154"/>
<polygon fill="#000000" stroke="#000000" points="2456.1775,-157.5001 2466.1775,-154 2456.1774,-150.5001 2456.1775,-157.5001"/>
</g>
<!-- PasswordComponent -->
<g id="node19" class="node">
<title>PasswordComponent</title>
<polygon fill="#ffffb3" stroke="#000000" points="2160.486,-122 2025.514,-122 2025.514,-86 2160.486,-86 2160.486,-122"/>
<text text-anchor="middle" x="2093" y="-99.8" font-family="Times,serif" font-size="14.00" fill="#000000">PasswordComponent</text>
</g>
<!-- PasswordComponent&#45;&gt;AppModule -->
<g id="edge19" class="edge">
<title>PasswordComponent&#45;&gt;AppModule</title>
<path fill="none" stroke="#000000" d="M2093,-122.1871C2093,-137.1824 2093,-156 2093,-156 2093,-156 2456.3081,-156 2456.3081,-156"/>
<polygon fill="#000000" stroke="#000000" points="2456.3081,-159.5001 2466.3081,-156 2456.3081,-152.5001 2456.3081,-159.5001"/>
</g>
<!-- PerfilComponent -->
<g id="node20" class="node">
<title>PerfilComponent</title>
<polygon fill="#ffffb3" stroke="#000000" points="2007.4328,-122 1894.5672,-122 1894.5672,-86 2007.4328,-86 2007.4328,-122"/>
<text text-anchor="middle" x="1951" y="-99.8" font-family="Times,serif" font-size="14.00" fill="#000000">PerfilComponent</text>
</g>
<!-- PerfilComponent&#45;&gt;AppModule -->
<g id="edge20" class="edge">
<title>PerfilComponent&#45;&gt;AppModule</title>
<path fill="none" stroke="#000000" d="M1951,-122.2819C1951,-137.9478 1951,-158 1951,-158 1951,-158 2456.1345,-158 2456.1345,-158"/>
<polygon fill="#000000" stroke="#000000" points="2456.1345,-161.5001 2466.1345,-158 2456.1344,-154.5001 2456.1345,-161.5001"/>
</g>
<!-- ProyeccionesComponent -->
<g id="node21" class="node">
<title>ProyeccionesComponent</title>
<polygon fill="#ffffb3" stroke="#000000" points="1876.9692,-122 1721.0308,-122 1721.0308,-86 1876.9692,-86 1876.9692,-122"/>
<text text-anchor="middle" x="1799" y="-99.8" font-family="Times,serif" font-size="14.00" fill="#000000">ProyeccionesComponent</text>
</g>
<!-- ProyeccionesComponent&#45;&gt;AppModule -->
<g id="edge21" class="edge">
<title>ProyeccionesComponent&#45;&gt;AppModule</title>
<path fill="none" stroke="#000000" d="M1799,-122.027C1799,-138.3976 1799,-160 1799,-160 1799,-160 2456.2958,-160 2456.2958,-160"/>
<polygon fill="#000000" stroke="#000000" points="2456.2958,-163.5001 2466.2958,-160 2456.2957,-156.5001 2456.2958,-163.5001"/>
</g>
<!-- ProyventasComponent -->
<g id="node22" class="node">
<title>ProyventasComponent</title>
<polygon fill="#ffffb3" stroke="#000000" points="1702.5407,-122 1559.4593,-122 1559.4593,-86 1702.5407,-86 1702.5407,-122"/>
<text text-anchor="middle" x="1631" y="-99.8" font-family="Times,serif" font-size="14.00" fill="#000000">ProyventasComponent</text>
</g>
<!-- ProyventasComponent&#45;&gt;AppModule -->
<g id="edge22" class="edge">
<title>ProyventasComponent&#45;&gt;AppModule</title>
<path fill="none" stroke="#000000" d="M1631,-122.0225C1631,-139.3734 1631,-163 1631,-163 1631,-163 2456.2905,-163 2456.2905,-163"/>
<polygon fill="#000000" stroke="#000000" points="2456.2905,-166.5001 2466.2905,-163 2456.2904,-159.5001 2456.2905,-166.5001"/>
</g>
<!-- RegistroNavesComponent -->
<g id="node23" class="node">
<title>RegistroNavesComponent</title>
<polygon fill="#ffffb3" stroke="#000000" points="1540.7506,-122 1377.2494,-122 1377.2494,-86 1540.7506,-86 1540.7506,-122"/>
<text text-anchor="middle" x="1459" y="-99.8" font-family="Times,serif" font-size="14.00" fill="#000000">RegistroNavesComponent</text>
</g>
<!-- RegistroNavesComponent&#45;&gt;AppModule -->
<g id="edge23" class="edge">
<title>RegistroNavesComponent&#45;&gt;AppModule</title>
<path fill="none" stroke="#000000" d="M1459,-122.302C1459,-140.2699 1459,-165 1459,-165 1459,-165 2456.2306,-165 2456.2306,-165"/>
<polygon fill="#000000" stroke="#000000" points="2456.2307,-168.5001 2466.2306,-165 2456.2306,-161.5001 2456.2307,-168.5001"/>
</g>
<!-- Rep6040Component -->
<g id="node24" class="node">
<title>Rep6040Component</title>
<polygon fill="#ffffb3" stroke="#000000" points="1358.8837,-122 1227.1163,-122 1227.1163,-86 1358.8837,-86 1358.8837,-122"/>
<text text-anchor="middle" x="1293" y="-99.8" font-family="Times,serif" font-size="14.00" fill="#000000">Rep6040Component</text>
</g>
<!-- Rep6040Component&#45;&gt;AppModule -->
<g id="edge24" class="edge">
<title>Rep6040Component&#45;&gt;AppModule</title>
<path fill="none" stroke="#000000" d="M1293,-122.2222C1293,-140.8285 1293,-167 1293,-167 1293,-167 2456.1769,-167 2456.1769,-167"/>
<polygon fill="#000000" stroke="#000000" points="2456.177,-170.5001 2466.1769,-167 2456.1769,-163.5001 2456.177,-170.5001"/>
</g>
<!-- RetirosComponent -->
<g id="node25" class="node">
<title>RetirosComponent</title>
<polygon fill="#ffffb3" stroke="#000000" points="1208.7702,-122 1087.2298,-122 1087.2298,-86 1208.7702,-86 1208.7702,-122"/>
<text text-anchor="middle" x="1148" y="-99.8" font-family="Times,serif" font-size="14.00" fill="#000000">RetirosComponent</text>
</g>
<!-- RetirosComponent&#45;&gt;AppModule -->
<g id="edge25" class="edge">
<title>RetirosComponent&#45;&gt;AppModule</title>
<path fill="none" stroke="#000000" d="M1148,-122.1061C1148,-141.3391 1148,-169 1148,-169 1148,-169 2456.1817,-169 2456.1817,-169"/>
<polygon fill="#000000" stroke="#000000" points="2456.1818,-172.5001 2466.1817,-169 2456.1817,-165.5001 2456.1818,-172.5001"/>
</g>
<!-- SideBarComponent -->
<g id="node26" class="node">
<title>SideBarComponent</title>
<polygon fill="#ffffb3" stroke="#000000" points="1069.4327,-122 942.5673,-122 942.5673,-86 1069.4327,-86 1069.4327,-122"/>
<text text-anchor="middle" x="1006" y="-99.8" font-family="Times,serif" font-size="14.00" fill="#000000">SideBarComponent</text>
</g>
<!-- SideBarComponent&#45;&gt;AppModule -->
<g id="edge26" class="edge">
<title>SideBarComponent&#45;&gt;AppModule</title>
<path fill="none" stroke="#000000" d="M1006,-122.2228C1006,-142.3652 1006,-172 1006,-172 1006,-172 2456.2603,-172 2456.2603,-172"/>
<polygon fill="#000000" stroke="#000000" points="2456.2603,-175.5001 2466.2603,-172 2456.2602,-168.5001 2456.2603,-175.5001"/>
</g>
<!-- StatusBarComponent -->
<g id="node27" class="node">
<title>StatusBarComponent</title>
<polygon fill="#ffffb3" stroke="#000000" points="924.7674,-122 789.2326,-122 789.2326,-86 924.7674,-86 924.7674,-122"/>
<text text-anchor="middle" x="857" y="-99.8" font-family="Times,serif" font-size="14.00" fill="#000000">StatusBarComponent</text>
</g>
<!-- StatusBarComponent&#45;&gt;AppModule -->
<g id="edge27" class="edge">
<title>StatusBarComponent&#45;&gt;AppModule</title>
<path fill="none" stroke="#000000" d="M857,-122.0267C857,-142.7672 857,-174 857,-174 857,-174 2455.9471,-174 2455.9471,-174"/>
<polygon fill="#000000" stroke="#000000" points="2455.9471,-177.5001 2465.9471,-174 2455.947,-170.5001 2455.9471,-177.5001"/>
</g>
<!-- TransbordoComponent -->
<g id="node28" class="node">
<title>TransbordoComponent</title>
<polygon fill="#ffffb3" stroke="#000000" points="770.8655,-122 625.1345,-122 625.1345,-86 770.8655,-86 770.8655,-122"/>
<text text-anchor="middle" x="698" y="-99.8" font-family="Times,serif" font-size="14.00" fill="#000000">TransbordoComponent</text>
</g>
<!-- TransbordoComponent&#45;&gt;AppModule -->
<g id="edge28" class="edge">
<title>TransbordoComponent&#45;&gt;AppModule</title>
<path fill="none" stroke="#000000" d="M698,-122.1686C698,-143.498 698,-176 698,-176 698,-176 2455.9234,-176 2455.9234,-176"/>
<polygon fill="#000000" stroke="#000000" points="2455.9234,-179.5001 2465.9234,-176 2455.9233,-172.5001 2455.9234,-179.5001"/>
</g>
<!-- UsuarioComponent -->
<g id="node29" class="node">
<title>UsuarioComponent</title>
<polygon fill="#ffffb3" stroke="#000000" points="606.6499,-122 481.3501,-122 481.3501,-86 606.6499,-86 606.6499,-122"/>
<text text-anchor="middle" x="544" y="-99.8" font-family="Times,serif" font-size="14.00" fill="#000000">UsuarioComponent</text>
</g>
<!-- UsuarioComponent&#45;&gt;AppModule -->
<g id="edge29" class="edge">
<title>UsuarioComponent&#45;&gt;AppModule</title>
<path fill="none" stroke="#000000" d="M544,-122.2921C544,-144.2057 544,-178 544,-178 544,-178 2456.0705,-178 2456.0705,-178"/>
<polygon fill="#000000" stroke="#000000" points="2456.0705,-181.5001 2466.0705,-178 2456.0704,-174.5001 2456.0705,-181.5001"/>
</g>
<!-- WelcomePageComponent -->
<g id="node30" class="node">
<title>WelcomePageComponent</title>
<polygon fill="#ffffb3" stroke="#000000" points="463.1839,-122 300.8161,-122 300.8161,-86 463.1839,-86 463.1839,-122"/>
<text text-anchor="middle" x="382" y="-99.8" font-family="Times,serif" font-size="14.00" fill="#000000">WelcomePageComponent</text>
</g>
<!-- WelcomePageComponent&#45;&gt;AppModule -->
<g id="edge30" class="edge">
<title>WelcomePageComponent&#45;&gt;AppModule</title>
<path fill="none" stroke="#000000" d="M382,-122.2479C382,-145.0179 382,-181 382,-181 382,-181 2456.0102,-181 2456.0102,-181"/>
<polygon fill="#000000" stroke="#000000" points="2456.0103,-184.5001 2466.0102,-181 2456.0102,-177.5001 2456.0103,-184.5001"/>
</g>
<!-- AppComponent  -->
<g id="node34" class="node">
<title>AppComponent </title>
<polygon fill="#80b1d3" stroke="#000000" points="2562.439,-252 2453.561,-252 2453.561,-216 2562.439,-216 2562.439,-252"/>
<text text-anchor="middle" x="2508" y="-229.8" font-family="Times,serif" font-size="14.00" fill="#000000">AppComponent </text>
</g>
<!-- AppModule&#45;&gt;AppComponent  -->
<g id="edge33" class="edge">
<title>AppModule&#45;&gt;AppComponent </title>
<path fill="none" stroke="#000000" stroke-dasharray="1,5" d="M2508,-187.1061C2508,-187.1061 2508,-205.991 2508,-205.991"/>
<polygon fill="#000000" stroke="#000000" points="2504.5001,-205.9909 2508,-215.991 2511.5001,-205.991 2504.5001,-205.9909"/>
</g>
<!-- AppRoutingModule -->
<g id="node32" class="node">
<title>AppRoutingModule</title>
<polygon fill="#8dd3c7" stroke="#000000" points="277.2744,-122 274.2744,-126 253.2744,-126 250.2744,-122 148.7256,-122 148.7256,-86 277.2744,-86 277.2744,-122"/>
<text text-anchor="middle" x="213" y="-99.8" font-family="Times,serif" font-size="14.00" fill="#000000">AppRoutingModule</text>
</g>
<!-- AppRoutingModule&#45;&gt;AppModule -->
<g id="edge31" class="edge">
<title>AppRoutingModule&#45;&gt;AppModule</title>
<path fill="none" stroke="#000000" d="M213,-122.3228C213,-145.6602 213,-183 213,-183 213,-183 2456.2069,-183 2456.2069,-183"/>
<polygon fill="#000000" stroke="#000000" points="2456.2069,-186.5001 2466.2069,-183 2456.2068,-179.5001 2456.2069,-186.5001"/>
</g>
<!-- MaterialModule -->
<g id="node33" class="node">
<title>MaterialModule</title>
<polygon fill="#8dd3c7" stroke="#000000" points="130.4706,-122 127.4706,-126 106.4706,-126 103.4706,-122 23.5294,-122 23.5294,-86 130.4706,-86 130.4706,-122"/>
<text text-anchor="middle" x="77" y="-99.8" font-family="Times,serif" font-size="14.00" fill="#000000">MaterialModule</text>
</g>
<!-- MaterialModule&#45;&gt;AppModule -->
<g id="edge32" class="edge">
<title>MaterialModule&#45;&gt;AppModule</title>
<path fill="none" stroke="#000000" d="M77,-122.3802C77,-146.2785 77,-185 77,-185 77,-185 2456.3169,-185 2456.3169,-185"/>
<polygon fill="#000000" stroke="#000000" points="2456.317,-188.5001 2466.3169,-185 2456.3169,-181.5001 2456.317,-188.5001"/>
</g>
</g>
</svg>
